<svg width="218" height="69" viewBox="0 0 218 69" fill="none" xmlns="http://www.w3.org/2000/svg">
<path d="M2 43H218.5" stroke="white" stroke-opacity="0.1" stroke-dasharray="4 4"/>
<rect x="59" width="58" height="69" fill="url(#paint0_linear_4015_26963)"/>
<circle cx="60" cy="34" r="5.5" fill="#3A48E0" stroke="#151618"/>
<circle cx="60" cy="34" r="2" fill="white"/>
<path d="M0 29.5L13.7275 32.73C15.8205 33.2225 18.0237 32.8517 19.8402 31.7012L26.1678 27.6937C29.5184 25.5717 33.9179 26.2248 36.5075 29.2287L41.5628 35.0928C43.3866 37.2085 46.1819 38.2197 48.9373 37.7605L71.2314 34.0448C73.3242 33.696 75.47 34.1928 77.1965 35.4261L92.5342 46.3816C94.4182 47.7273 96.7929 48.1908 99.0447 47.6524L114 44.0761C116.784 43.4103 119.711 44.2827 121.677 46.3637L131.839 57.1239C134.056 59.4712 137.467 60.2558 140.486 59.1132L149.968 55.5255C152.485 54.5732 155.312 54.95 157.491 56.5283L164.098 61.3124C166.755 63.2365 170.318 63.3434 173.085 61.5822L181.324 56.3392C183.508 54.9496 186.343 55.1511 188.308 56.8355V56.8355C191.619 59.6737 196.759 58.0464 197.834 53.8197L198.327 51.88C199.948 45.5049 208.605 44.5459 211.582 50.4118L220 67" stroke="#3A48E0" stroke-width="1.5"/>
<circle cx="119" cy="45" r="5.5" fill="#3A48E0" stroke="#151618"/>
<circle cx="119" cy="45" r="2" fill="white"/>
<path d="M91.35 20.29V18.55H89.55V17.77H91.35V16.03H92.12V17.77H93.91V18.54H92.12V20.28L91.35 20.29ZM97.2502 21.88V21.05C96.5568 20.97 95.9768 20.7267 95.5102 20.32C95.0435 19.9067 94.8102 19.3267 94.8102 18.58H95.6702C95.6835 19.08 95.8368 19.47 96.1302 19.75C96.4235 20.03 96.7968 20.2067 97.2502 20.28V17.8C96.9902 17.7333 96.7602 17.6667 96.5602 17.6C96.3602 17.5333 96.1535 17.4467 95.9402 17.34C95.7335 17.2267 95.5602 17.1067 95.4202 16.98C95.2802 16.8533 95.1668 16.6967 95.0802 16.51C94.9935 16.3233 94.9502 16.1167 94.9502 15.89C94.9502 15.3567 95.1668 14.9067 95.6002 14.54C96.0335 14.1667 96.5835 13.96 97.2502 13.92V13.22H97.8302V13.93C98.5102 13.9967 99.0702 14.23 99.5102 14.63C99.9502 15.03 100.18 15.5567 100.2 16.21L99.3302 16.2C99.2902 15.7533 99.1335 15.4067 98.8602 15.16C98.5868 14.9133 98.2435 14.76 97.8302 14.7V17.13C98.6702 17.3233 99.2735 17.5767 99.6402 17.89C100.013 18.2033 100.2 18.6267 100.2 19.16C100.2 19.72 99.9868 20.1767 99.5602 20.53C99.1335 20.8767 98.5568 21.06 97.8302 21.08V21.88H97.2502ZM97.2502 16.99V14.68C96.7902 14.7067 96.4302 14.8367 96.1702 15.07C95.9102 15.2967 95.7802 15.56 95.7802 15.86C95.7802 16.14 95.9035 16.3667 96.1502 16.54C96.3968 16.7067 96.7635 16.8567 97.2502 16.99ZM97.8302 20.32C98.2902 20.3 98.6602 20.19 98.9402 19.99C99.2202 19.7833 99.3602 19.5133 99.3602 19.18C99.3602 18.84 99.2335 18.58 98.9802 18.4C98.7268 18.22 98.3435 18.0633 97.8302 17.93V20.32ZM102.962 21V14.81H101.082V14H103.812V21H102.962ZM104.69 22.16L105.2 19.84H106.07L105.34 22.16H104.69ZM111.642 20.05C111.142 20.71 110.465 21.04 109.612 21.04C108.758 21.04 108.082 20.7133 107.582 20.06C107.082 19.4 106.832 18.5367 106.832 17.47C106.832 16.3967 107.082 15.53 107.582 14.87C108.082 14.2033 108.758 13.87 109.612 13.87C110.458 13.87 111.135 14.2033 111.642 14.87C112.148 15.53 112.402 16.3933 112.402 17.46C112.402 18.52 112.148 19.3833 111.642 20.05ZM109.612 20.21C110.205 20.21 110.675 19.9533 111.022 19.44C111.375 18.92 111.552 18.26 111.552 17.46C111.552 16.66 111.375 16 111.022 15.48C110.668 14.9533 110.198 14.69 109.612 14.69C109.018 14.69 108.548 14.9533 108.202 15.48C107.855 16 107.682 16.6633 107.682 17.47C107.682 18.2767 107.858 18.9367 108.212 19.45C108.565 19.9567 109.032 20.21 109.612 20.21ZM118.009 20.05C117.509 20.71 116.832 21.04 115.979 21.04C115.125 21.04 114.449 20.7133 113.949 20.06C113.449 19.4 113.199 18.5367 113.199 17.47C113.199 16.3967 113.449 15.53 113.949 14.87C114.449 14.2033 115.125 13.87 115.979 13.87C116.825 13.87 117.502 14.2033 118.009 14.87C118.515 15.53 118.769 16.3933 118.769 17.46C118.769 18.52 118.515 19.3833 118.009 20.05ZM115.979 20.21C116.572 20.21 117.042 19.9533 117.389 19.44C117.742 18.92 117.919 18.26 117.919 17.46C117.919 16.66 117.742 16 117.389 15.48C117.035 14.9533 116.565 14.69 115.979 14.69C115.385 14.69 114.915 14.9533 114.569 15.48C114.222 16 114.049 16.6633 114.049 17.47C114.049 18.2767 114.225 18.9367 114.579 19.45C114.932 19.9567 115.399 20.21 115.979 20.21ZM124.376 20.05C123.876 20.71 123.199 21.04 122.346 21.04C121.493 21.04 120.816 20.7133 120.316 20.06C119.816 19.4 119.566 18.5367 119.566 17.47C119.566 16.3967 119.816 15.53 120.316 14.87C120.816 14.2033 121.493 13.87 122.346 13.87C123.193 13.87 123.869 14.2033 124.376 14.87C124.883 15.53 125.136 16.3933 125.136 17.46C125.136 18.52 124.883 19.3833 124.376 20.05ZM122.346 20.21C122.939 20.21 123.409 19.9533 123.756 19.44C124.109 18.92 124.286 18.26 124.286 17.46C124.286 16.66 124.109 16 123.756 15.48C123.403 14.9533 122.933 14.69 122.346 14.69C121.753 14.69 121.283 14.9533 120.936 15.48C120.589 16 120.416 16.6633 120.416 17.47C120.416 18.2767 120.593 18.9367 120.946 19.45C121.299 19.9567 121.766 20.21 122.346 20.21Z" fill="white" fill-opacity="0.5"/>
<defs>
<linearGradient id="paint0_linear_4015_26963" x1="88" y1="0" x2="88" y2="69" gradientUnits="userSpaceOnUse">
<stop stop-color="#4852F5" stop-opacity="0"/>
<stop offset="0.435" stop-color="#4852F5" stop-opacity="0.2"/>
<stop offset="1" stop-color="#4852F5" stop-opacity="0"/>
</linearGradient>
</defs>
</svg>
