<svg width="220" height="69" viewBox="0 0 220 69" fill="none" xmlns="http://www.w3.org/2000/svg">
<path d="M3 43H219.5" stroke="white" stroke-opacity="0.1" stroke-dasharray="4 4"/>
<path d="M-2 29.5L10.7034 14.6063C11.8434 13.2698 13.5118 12.5 15.2684 12.5H17.6488C19.1603 12.5 20.6161 11.9295 21.7252 10.9026L28.5699 4.56491C31.1979 2.13159 35.3586 2.52767 37.4802 5.41314L44.2017 14.5543C45.3323 16.092 47.1271 17 49.0356 17H56.6496C58.4481 17 60.1458 17.8303 61.25 19.25V19.25C62.3542 20.6697 64.0519 21.5 65.8504 21.5H66.0728C68.1966 21.5 70.1621 22.6227 71.241 24.4521L76.2482 32.9426C78.4696 36.7093 83.8446 36.9108 86.3418 33.3211L94.0714 22.2098C95.7578 19.7857 98.9573 18.949 101.614 20.2373L111.818 25.1844C112.913 25.7155 114.144 25.9009 115.348 25.7157L121.713 24.7365C124.506 24.3067 127.22 25.8843 128.23 28.5239L131.72 37.6523C132.491 39.6684 134.426 41 136.584 41V41C138.903 41 140.943 42.5339 141.587 44.7621L143.413 51.0829C144.83 55.9885 151.337 56.9945 154.169 52.7459L163.462 38.8065C165.38 35.9296 169.326 35.2648 172.081 37.3545L178.203 41.9988C180.188 43.5046 182.897 43.6271 185.009 42.3067L190.098 39.1265C192.157 37.8395 194.789 37.9206 196.765 39.3321L199.66 41.4002C202.135 43.168 205.541 42.8044 207.587 40.5539L212.703 34.9268C213.546 33.999 214.659 33.3587 215.885 33.096L221 32" stroke="#3A48E0" stroke-width="1.5"/>
<rect width="56" height="69" transform="matrix(-1 0 0 1 145 0)" fill="url(#paint0_linear_4012_27074)"/>
<circle cx="91" cy="26" r="5.5" fill="#3A48E0" stroke="#151618"/>
<circle cx="91" cy="26" r="2" fill="white"/>
<circle cx="145" cy="47" r="5.5" fill="#3A48E0" stroke="#151618"/>
<circle cx="145" cy="47" r="2" fill="white"/>
<path d="M116.35 12.29V10.55H114.55V9.77H116.35V8.03H117.12V9.77H118.91V10.54H117.12V12.28L116.35 12.29ZM122.25 13.88V13.05C121.557 12.97 120.977 12.7267 120.51 12.32C120.043 11.9067 119.81 11.3267 119.81 10.58H120.67C120.683 11.08 120.837 11.47 121.13 11.75C121.423 12.03 121.797 12.2067 122.25 12.28V9.8C121.99 9.73333 121.76 9.66667 121.56 9.6C121.36 9.53333 121.153 9.44667 120.94 9.34C120.733 9.22667 120.56 9.10667 120.42 8.98C120.28 8.85333 120.167 8.69667 120.08 8.51C119.993 8.32333 119.95 8.11667 119.95 7.89C119.95 7.35667 120.167 6.90667 120.6 6.54C121.033 6.16667 121.583 5.96 122.25 5.92V5.22H122.83V5.93C123.51 5.99667 124.07 6.23 124.51 6.63C124.95 7.03 125.18 7.55667 125.2 8.21L124.33 8.2C124.29 7.75333 124.133 7.40667 123.86 7.16C123.587 6.91333 123.243 6.76 122.83 6.7V9.13C123.67 9.32333 124.273 9.57667 124.64 9.89C125.013 10.2033 125.2 10.6267 125.2 11.16C125.2 11.72 124.987 12.1767 124.56 12.53C124.133 12.8767 123.557 13.06 122.83 13.08V13.88H122.25ZM122.25 8.99V6.68C121.79 6.70667 121.43 6.83667 121.17 7.07C120.91 7.29667 120.78 7.56 120.78 7.86C120.78 8.14 120.903 8.36667 121.15 8.54C121.397 8.70667 121.763 8.85667 122.25 8.99ZM122.83 12.32C123.29 12.3 123.66 12.19 123.94 11.99C124.22 11.7833 124.36 11.5133 124.36 11.18C124.36 10.84 124.233 10.58 123.98 10.4C123.727 10.22 123.343 10.0633 122.83 9.93V12.32ZM126.202 13V12.41L129.062 9.35C129.522 8.85 129.755 8.41333 129.762 8.04C129.775 7.66 129.648 7.34667 129.382 7.1C129.122 6.84667 128.792 6.72 128.392 6.72C127.978 6.72 127.638 6.85 127.372 7.11C127.105 7.37 126.952 7.70333 126.912 8.11H126.062C126.102 7.42333 126.342 6.88667 126.782 6.5C127.222 6.10667 127.758 5.91 128.392 5.91C129.005 5.91 129.528 6.09667 129.962 6.47C130.402 6.83667 130.622 7.35333 130.622 8.02C130.622 8.34 130.548 8.64 130.402 8.92C130.262 9.2 130.032 9.51333 129.712 9.86L127.542 12.18H130.732L130.722 13H126.202ZM131.468 14.16L131.978 11.84H132.848L132.118 14.16H131.468ZM138.419 12.05C137.919 12.71 137.242 13.04 136.389 13.04C135.536 13.04 134.859 12.7133 134.359 12.06C133.859 11.4 133.609 10.5367 133.609 9.47C133.609 8.39667 133.859 7.53 134.359 6.87C134.859 6.20333 135.536 5.87 136.389 5.87C137.236 5.87 137.912 6.20333 138.419 6.87C138.926 7.53 139.179 8.39333 139.179 9.46C139.179 10.52 138.926 11.3833 138.419 12.05ZM136.389 12.21C136.982 12.21 137.452 11.9533 137.799 11.44C138.152 10.92 138.329 10.26 138.329 9.46C138.329 8.66 138.152 8 137.799 7.48C137.446 6.95333 136.976 6.69 136.389 6.69C135.796 6.69 135.326 6.95333 134.979 7.48C134.632 8 134.459 8.66333 134.459 9.47C134.459 10.2767 134.636 10.9367 134.989 11.45C135.342 11.9567 135.809 12.21 136.389 12.21ZM144.786 12.05C144.286 12.71 143.61 13.04 142.756 13.04C141.903 13.04 141.226 12.7133 140.726 12.06C140.226 11.4 139.976 10.5367 139.976 9.47C139.976 8.39667 140.226 7.53 140.726 6.87C141.226 6.20333 141.903 5.87 142.756 5.87C143.603 5.87 144.28 6.20333 144.786 6.87C145.293 7.53 145.546 8.39333 145.546 9.46C145.546 10.52 145.293 11.3833 144.786 12.05ZM142.756 12.21C143.35 12.21 143.82 11.9533 144.166 11.44C144.52 10.92 144.696 10.26 144.696 9.46C144.696 8.66 144.52 8 144.166 7.48C143.813 6.95333 143.343 6.69 142.756 6.69C142.163 6.69 141.693 6.95333 141.346 7.48C141 8 140.826 8.66333 140.826 9.47C140.826 10.2767 141.003 10.9367 141.356 11.45C141.71 11.9567 142.176 12.21 142.756 12.21ZM151.153 12.05C150.653 12.71 149.977 13.04 149.123 13.04C148.27 13.04 147.593 12.7133 147.093 12.06C146.593 11.4 146.343 10.5367 146.343 9.47C146.343 8.39667 146.593 7.53 147.093 6.87C147.593 6.20333 148.27 5.87 149.123 5.87C149.97 5.87 150.647 6.20333 151.153 6.87C151.66 7.53 151.913 8.39333 151.913 9.46C151.913 10.52 151.66 11.3833 151.153 12.05ZM149.123 12.21C149.717 12.21 150.187 11.9533 150.533 11.44C150.887 10.92 151.063 10.26 151.063 9.46C151.063 8.66 150.887 8 150.533 7.48C150.18 6.95333 149.71 6.69 149.123 6.69C148.53 6.69 148.06 6.95333 147.713 7.48C147.367 8 147.193 8.66333 147.193 9.47C147.193 10.2767 147.37 10.9367 147.723 11.45C148.077 11.9567 148.543 12.21 149.123 12.21Z" fill="white" fill-opacity="0.5"/>
<defs>
<linearGradient id="paint0_linear_4012_27074" x1="28" y1="0" x2="28" y2="69" gradientUnits="userSpaceOnUse">
<stop stop-color="#4852F5" stop-opacity="0"/>
<stop offset="0.435" stop-color="#4852F5" stop-opacity="0.2"/>
<stop offset="1" stop-color="#4852F5" stop-opacity="0"/>
</linearGradient>
</defs>
</svg>
