<svg width="28" height="29" viewBox="0 0 28 29" fill="none" xmlns="http://www.w3.org/2000/svg">
<g filter="url(#filter0_i_2028_20843)">
<g clip-path="url(#clip0_2028_20843)">
<rect y="0.5" width="28" height="28" rx="6.33962" fill="white" fill-opacity="0.01"/>
<g filter="url(#filter1_f_2028_20843)">
<circle cx="17" cy="38.5" r="11" fill="white" fill-opacity="0.5"/>
</g>
<g filter="url(#filter2_d_2028_20843)">
<path d="M16.2236 14.125C16.2236 13.625 15.8509 13.2188 15.4161 13.2188C14.9503 13.2188 14.5776 13.625 14.5776 14.125C14.5776 14.5938 14.9503 15 15.4161 15C15.8509 15 16.2236 14.5938 16.2236 14.125ZM12.4969 13.2188C12.0621 13.2188 11.6894 13.625 11.6894 14.125C11.6894 14.5938 12.0621 15 12.4969 15C12.9627 15 13.3043 14.5938 13.3043 14.125C13.3354 13.625 12.9627 13.2188 12.4969 13.2188ZM20.913 8.15625C20.913 7.25 20.1677 6.5 19.2671 6.5H8.61491C7.71429 6.5 7 7.25 7 8.15625V18.9688C7 19.9062 7.71429 20.625 8.61491 20.625H17.6211L17.2174 19.1562C19.5466 21.3125 18.8944 20.75 20.913 22.5V8.15625ZM18.646 15.75C18.646 15.75 17.9627 16.9062 16.1925 16.9688C16.1925 16.9688 15.913 16.625 15.6646 16.3125C16.7205 16.0312 17.1242 15.375 17.1242 15.375C16.7826 15.5938 16.472 15.7188 16.1925 15.8438C14.4845 16.5625 12.5901 16.3125 11.2236 15.5625C11.2236 15.5312 11.0373 15.4375 10.913 15.3438C10.913 15.3438 11.2857 16 12.3106 16.3125C12.0621 16.5938 11.7826 16.9688 11.7826 16.9688C10.0124 16.9062 9.36025 15.75 9.36025 15.75C9.36025 13.1562 10.4783 11.0938 10.4783 11.0938C11.6273 10.2188 12.7143 10.25 12.7143 10.25L12.8075 10.3438C11.3789 10.75 10.7267 11.375 10.7267 11.375C10.7267 11.375 10.882 11.2812 11.1925 11.1562C13.0248 10.3438 15.2298 10.3438 17.1242 11.375C17.1242 11.375 16.5031 10.7812 15.1366 10.375L15.2609 10.25C15.2609 10.25 16.3478 10.2188 17.4969 11.0938C17.4969 11.0938 18.646 13.1562 18.646 15.75Z" fill="white"/>
</g>
</g>
</g>
<defs>
<filter id="filter0_i_2028_20843" x="0" y="0.5" width="28" height="28" filterUnits="userSpaceOnUse" color-interpolation-filters="sRGB">
<feFlood flood-opacity="0" result="BackgroundImageFix"/>
<feBlend mode="normal" in="SourceGraphic" in2="BackgroundImageFix" result="shape"/>
<feColorMatrix in="SourceAlpha" type="matrix" values="0 0 0 0 0 0 0 0 0 0 0 0 0 0 0 0 0 0 127 0" result="hardAlpha"/>
<feOffset/>
<feGaussianBlur stdDeviation="1"/>
<feComposite in2="hardAlpha" operator="arithmetic" k2="-1" k3="1"/>
<feColorMatrix type="matrix" values="0 0 0 0 1 0 0 0 0 1 0 0 0 0 1 0 0 0 0.3 0"/>
<feBlend mode="normal" in2="shape" result="effect1_innerShadow_2028_20843"/>
</filter>
<filter id="filter1_f_2028_20843" x="-14" y="7.5" width="62" height="62" filterUnits="userSpaceOnUse" color-interpolation-filters="sRGB">
<feFlood flood-opacity="0" result="BackgroundImageFix"/>
<feBlend mode="normal" in="SourceGraphic" in2="BackgroundImageFix" result="shape"/>
<feGaussianBlur stdDeviation="10" result="effect1_foregroundBlur_2028_20843"/>
</filter>
<filter id="filter2_d_2028_20843" x="-3" y="-3.5" width="33.9131" height="36" filterUnits="userSpaceOnUse" color-interpolation-filters="sRGB">
<feFlood flood-opacity="0" result="BackgroundImageFix"/>
<feColorMatrix in="SourceAlpha" type="matrix" values="0 0 0 0 0 0 0 0 0 0 0 0 0 0 0 0 0 0 127 0" result="hardAlpha"/>
<feOffset/>
<feGaussianBlur stdDeviation="5"/>
<feComposite in2="hardAlpha" operator="out"/>
<feColorMatrix type="matrix" values="0 0 0 0 1 0 0 0 0 1 0 0 0 0 1 0 0 0 0.25 0"/>
<feBlend mode="normal" in2="BackgroundImageFix" result="effect1_dropShadow_2028_20843"/>
<feBlend mode="normal" in="SourceGraphic" in2="effect1_dropShadow_2028_20843" result="shape"/>
</filter>
<clipPath id="clip0_2028_20843">
<rect y="0.5" width="28" height="28" rx="6.33962" fill="white"/>
</clipPath>
</defs>
</svg>
