<svg width="171" height="19" viewBox="0 0 171 19" fill="none" xmlns="http://www.w3.org/2000/svg">
<g filter="url(#filter0_i_20_21209)">
<path fill-rule="evenodd" clip-rule="evenodd" d="M12.2885 0C12.0005 0 11.8565 0 11.7465 0.0560546C11.6497 0.105362 11.571 0.184038 11.5217 0.280809C11.4657 0.390822 11.4657 0.534838 11.4657 0.822869V3.77634C11.4657 4.06438 11.4657 4.20839 11.5217 4.3184C11.571 4.41517 11.6497 4.49385 11.7465 4.54316C11.8565 4.59921 12.0005 4.59921 12.2885 4.59921H15.2434C15.5314 4.59921 15.6754 4.59921 15.7854 4.54316C15.8822 4.49385 15.9609 4.41517 16.0102 4.3184C16.0662 4.20839 16.0662 4.06438 16.0662 3.77635V0.822869C16.0662 0.534838 16.0662 0.390822 16.0102 0.280809C15.9609 0.184038 15.8822 0.105362 15.7854 0.0560546C15.6754 0 15.5314 0 15.2434 0H12.2885ZM33.4835 8.29697e-05C33.7716 8.29697e-05 33.9156 8.29697e-05 34.0256 0.0561376C34.1224 0.105445 34.201 0.184121 34.2503 0.280892C34.3064 0.390905 34.3064 0.534921 34.3064 0.822953V3.7557C34.3064 4.04373 34.3064 4.18774 34.2503 4.29776C34.201 4.39453 34.1224 4.4732 34.0256 4.52251C33.9156 4.57857 33.7716 4.57857 33.4835 4.57857H19.0766C18.7886 4.57857 18.6446 4.57857 18.5346 4.52251C18.4378 4.4732 18.3591 4.39453 18.3098 4.29776C18.2538 4.18774 18.2538 4.04373 18.2538 3.7557V0.822952C18.2538 0.534921 18.2538 0.390905 18.3098 0.280892C18.3591 0.184121 18.4378 0.105445 18.5346 0.0561376C18.6446 8.29697e-05 18.7886 8.29697e-05 19.0766 8.29697e-05H33.4835ZM0.82296 18.9998C0.534931 18.9998 0.390915 18.9998 0.280899 18.9438C0.184132 18.8945 0.105453 18.8158 0.0561447 18.719C9.15527e-05 18.609 9.15527e-05 18.465 9.15527e-05 18.177V15.2442C9.15527e-05 14.9562 9.15527e-05 14.8122 0.0561447 14.7022C0.105453 14.6054 0.184132 14.5267 0.280899 14.4774C0.390915 14.4213 0.534931 14.4213 0.82296 14.4213H15.2299C15.5179 14.4213 15.6619 14.4213 15.7719 14.4774C15.8687 14.5267 15.9474 14.6054 15.9967 14.7022C16.0527 14.8122 16.0527 14.9562 16.0527 15.2442V18.177C16.0527 18.465 16.0527 18.609 15.9967 18.719C15.9474 18.8158 15.8687 18.8945 15.7719 18.9438C15.6619 18.9998 15.5179 18.9998 15.2299 18.9998H0.82296ZM6.54706 7.17672C6.25903 7.17672 6.11501 7.17672 6.005 7.23277C5.90823 7.28208 5.82955 7.36076 5.78024 7.45753C5.72419 7.56754 5.72419 7.71156 5.72419 7.99959V11.121C5.72419 11.4091 5.72419 11.5531 5.78024 11.6631C5.82955 11.7599 5.90823 11.8385 6.005 11.8878C6.11501 11.9439 6.25903 11.9439 6.54706 11.9439H15.2281C15.5161 11.9439 15.6602 11.9439 15.7702 11.8878C15.8669 11.8385 15.9456 11.7599 15.9949 11.6631C16.051 11.5531 16.051 11.4091 16.051 11.121V7.99959C16.051 7.71156 16.051 7.56754 15.9949 7.45753C15.9456 7.36076 15.8669 7.28208 15.7702 7.23277C15.6602 7.17672 15.5161 7.17672 15.2281 7.17672H6.54706ZM27.7594 7.05609C28.0475 7.05609 28.1915 7.05609 28.3015 7.11214C28.3983 7.16145 28.4769 7.24013 28.5262 7.3369C28.5823 7.44691 28.5823 7.59093 28.5823 7.87896V11.0004C28.5823 11.2884 28.5823 11.4324 28.5262 11.5425C28.4769 11.6392 28.3983 11.7179 28.3015 11.7672C28.1915 11.8233 28.0475 11.8233 27.7594 11.8233H19.0784C18.7903 11.8233 18.6463 11.8233 18.5363 11.7672C18.4395 11.7179 18.3609 11.6392 18.3116 11.5425C18.2555 11.4324 18.2555 11.2884 18.2555 11.0004V7.87896C18.2555 7.59093 18.2555 7.44691 18.3116 7.3369C18.3609 7.24013 18.4395 7.16145 18.5363 7.11214C18.6463 7.05609 18.7903 7.05609 19.0784 7.05609H27.7594ZM22.0168 14.4007C22.3048 14.4007 22.4488 14.4007 22.5588 14.4568C22.6556 14.5061 22.7343 14.5847 22.7836 14.6815C22.8397 14.7915 22.8397 14.9355 22.8397 15.2236V18.177C22.8397 18.4651 22.8397 18.6091 22.7836 18.7191C22.7343 18.8159 22.6556 18.8946 22.5588 18.9439C22.4488 18.9999 22.3048 18.9999 22.0168 18.9999H19.062C18.7739 18.9999 18.6299 18.9999 18.5199 18.9439C18.4231 18.8946 18.3444 18.8159 18.2951 18.7191C18.2391 18.6091 18.2391 18.4651 18.2391 18.177V15.2236C18.2391 14.9355 18.2391 14.7915 18.2951 14.6815C18.3444 14.5847 18.4231 14.5061 18.5199 14.4568C18.6299 14.4007 18.7739 14.4007 19.062 14.4007H22.0168Z" fill="#D9D9D9"/>
<path fill-rule="evenodd" clip-rule="evenodd" d="M12.2885 0C12.0005 0 11.8565 0 11.7465 0.0560546C11.6497 0.105362 11.571 0.184038 11.5217 0.280809C11.4657 0.390822 11.4657 0.534838 11.4657 0.822869V3.77634C11.4657 4.06438 11.4657 4.20839 11.5217 4.3184C11.571 4.41517 11.6497 4.49385 11.7465 4.54316C11.8565 4.59921 12.0005 4.59921 12.2885 4.59921H15.2434C15.5314 4.59921 15.6754 4.59921 15.7854 4.54316C15.8822 4.49385 15.9609 4.41517 16.0102 4.3184C16.0662 4.20839 16.0662 4.06438 16.0662 3.77635V0.822869C16.0662 0.534838 16.0662 0.390822 16.0102 0.280809C15.9609 0.184038 15.8822 0.105362 15.7854 0.0560546C15.6754 0 15.5314 0 15.2434 0H12.2885ZM33.4835 8.29697e-05C33.7716 8.29697e-05 33.9156 8.29697e-05 34.0256 0.0561376C34.1224 0.105445 34.201 0.184121 34.2503 0.280892C34.3064 0.390905 34.3064 0.534921 34.3064 0.822953V3.7557C34.3064 4.04373 34.3064 4.18774 34.2503 4.29776C34.201 4.39453 34.1224 4.4732 34.0256 4.52251C33.9156 4.57857 33.7716 4.57857 33.4835 4.57857H19.0766C18.7886 4.57857 18.6446 4.57857 18.5346 4.52251C18.4378 4.4732 18.3591 4.39453 18.3098 4.29776C18.2538 4.18774 18.2538 4.04373 18.2538 3.7557V0.822952C18.2538 0.534921 18.2538 0.390905 18.3098 0.280892C18.3591 0.184121 18.4378 0.105445 18.5346 0.0561376C18.6446 8.29697e-05 18.7886 8.29697e-05 19.0766 8.29697e-05H33.4835ZM0.82296 18.9998C0.534931 18.9998 0.390915 18.9998 0.280899 18.9438C0.184132 18.8945 0.105453 18.8158 0.0561447 18.719C9.15527e-05 18.609 9.15527e-05 18.465 9.15527e-05 18.177V15.2442C9.15527e-05 14.9562 9.15527e-05 14.8122 0.0561447 14.7022C0.105453 14.6054 0.184132 14.5267 0.280899 14.4774C0.390915 14.4213 0.534931 14.4213 0.82296 14.4213H15.2299C15.5179 14.4213 15.6619 14.4213 15.7719 14.4774C15.8687 14.5267 15.9474 14.6054 15.9967 14.7022C16.0527 14.8122 16.0527 14.9562 16.0527 15.2442V18.177C16.0527 18.465 16.0527 18.609 15.9967 18.719C15.9474 18.8158 15.8687 18.8945 15.7719 18.9438C15.6619 18.9998 15.5179 18.9998 15.2299 18.9998H0.82296ZM6.54706 7.17672C6.25903 7.17672 6.11501 7.17672 6.005 7.23277C5.90823 7.28208 5.82955 7.36076 5.78024 7.45753C5.72419 7.56754 5.72419 7.71156 5.72419 7.99959V11.121C5.72419 11.4091 5.72419 11.5531 5.78024 11.6631C5.82955 11.7599 5.90823 11.8385 6.005 11.8878C6.11501 11.9439 6.25903 11.9439 6.54706 11.9439H15.2281C15.5161 11.9439 15.6602 11.9439 15.7702 11.8878C15.8669 11.8385 15.9456 11.7599 15.9949 11.6631C16.051 11.5531 16.051 11.4091 16.051 11.121V7.99959C16.051 7.71156 16.051 7.56754 15.9949 7.45753C15.9456 7.36076 15.8669 7.28208 15.7702 7.23277C15.6602 7.17672 15.5161 7.17672 15.2281 7.17672H6.54706ZM27.7594 7.05609C28.0475 7.05609 28.1915 7.05609 28.3015 7.11214C28.3983 7.16145 28.4769 7.24013 28.5262 7.3369C28.5823 7.44691 28.5823 7.59093 28.5823 7.87896V11.0004C28.5823 11.2884 28.5823 11.4324 28.5262 11.5425C28.4769 11.6392 28.3983 11.7179 28.3015 11.7672C28.1915 11.8233 28.0475 11.8233 27.7594 11.8233H19.0784C18.7903 11.8233 18.6463 11.8233 18.5363 11.7672C18.4395 11.7179 18.3609 11.6392 18.3116 11.5425C18.2555 11.4324 18.2555 11.2884 18.2555 11.0004V7.87896C18.2555 7.59093 18.2555 7.44691 18.3116 7.3369C18.3609 7.24013 18.4395 7.16145 18.5363 7.11214C18.6463 7.05609 18.7903 7.05609 19.0784 7.05609H27.7594ZM22.0168 14.4007C22.3048 14.4007 22.4488 14.4007 22.5588 14.4568C22.6556 14.5061 22.7343 14.5847 22.7836 14.6815C22.8397 14.7915 22.8397 14.9355 22.8397 15.2236V18.177C22.8397 18.4651 22.8397 18.6091 22.7836 18.7191C22.7343 18.8159 22.6556 18.8946 22.5588 18.9439C22.4488 18.9999 22.3048 18.9999 22.0168 18.9999H19.062C18.7739 18.9999 18.6299 18.9999 18.5199 18.9439C18.4231 18.8946 18.3444 18.8159 18.2951 18.7191C18.2391 18.6091 18.2391 18.4651 18.2391 18.177V15.2236C18.2391 14.9355 18.2391 14.7915 18.2951 14.6815C18.3444 14.5847 18.4231 14.5061 18.5199 14.4568C18.6299 14.4007 18.7739 14.4007 19.062 14.4007H22.0168Z" fill="url(#paint0_linear_20_21209)"/>
</g>
<path d="M42.1541 17.6377V1.15538H53.9037V3.39226H44.5794V8.28987H52.9618V10.4797H44.5794V17.6377H42.1541ZM55.1989 17.6377L60.8735 9.39654L55.1989 1.15538H58.0244L62.6159 7.96022L67.231 1.15538H70.0565L64.3819 9.39654L70.0565 17.6377H67.231L62.6159 10.8093L58.0244 17.6377H55.1989ZM72.0625 17.6377V1.15538H74.5113V17.6377H72.0625ZM77.2269 17.6377V1.15538H88.9764V3.39226H79.6521V8.28987H88.0346V10.4797H79.6521V17.6377H77.2269ZM95.9227 17.6377V12.2927L89.9655 1.15538H92.6027L97.1236 9.56136L101.668 1.15538H104.282L98.3715 12.2221V17.6377H95.9227Z" fill="white"/>
<path d="M106.23 17.6587V5.66137H114.782V7.28958H107.995V10.8545H114.097V12.4484H107.995V17.6587H106.23ZM119.719 17.8129C118.679 17.8129 117.782 17.4759 117.028 16.8017C116.274 16.1162 115.897 15.2135 115.897 14.0938V8.575H117.61V13.6139C117.61 14.4137 117.845 15.0478 118.313 15.5163C118.793 15.9734 119.37 16.2019 120.044 16.2019C120.821 16.2019 121.455 15.9219 121.947 15.3621C122.449 14.8022 122.701 14.0938 122.701 13.2368V8.575H124.415V17.6587H122.701V16.2704C121.992 17.2988 120.998 17.8129 119.719 17.8129ZM132.102 17.5901C130.708 17.9672 129.588 17.9101 128.742 17.4187C127.908 16.9274 127.491 16.0476 127.491 14.7793L127.508 10.0661H125.709V8.575H127.508V6.22696H129.205L129.188 8.575H132.067V10.0661H129.188L129.171 14.7622C129.171 15.4021 129.411 15.8362 129.891 16.0648C130.382 16.2819 131.119 16.2419 132.102 15.9448V17.5901ZM137.201 17.8129C136.161 17.8129 135.264 17.4759 134.51 16.8017C133.756 16.1162 133.379 15.2135 133.379 14.0938V8.575H135.093V13.6139C135.093 14.4137 135.327 15.0478 135.796 15.5163C136.275 15.9734 136.852 16.2019 137.527 16.2019C138.304 16.2019 138.938 15.9219 139.429 15.3621C139.932 14.8022 140.183 14.0938 140.183 13.2368V8.575H141.897V17.6587H140.183V16.2704C139.475 17.2988 138.481 17.8129 137.201 17.8129ZM143.62 17.6587V8.575H145.334V10.2204C145.608 9.59192 146.054 9.12345 146.671 8.81495C147.299 8.49502 148.053 8.40361 148.933 8.54073V10.3575C147.973 10.0832 147.133 10.2032 146.413 10.7174C145.694 11.2316 145.334 12.0142 145.334 13.0654V17.6587H143.62ZM153.979 17.7958C152.676 17.7958 151.574 17.3388 150.671 16.4247C149.769 15.4992 149.317 14.3908 149.317 13.0997C149.317 11.7971 149.774 10.6945 150.688 9.79188C151.602 8.87779 152.699 8.42075 153.979 8.42075C155.122 8.42075 156.121 8.80352 156.978 9.56907C157.847 10.3232 158.367 11.2601 158.538 12.3799C158.641 12.894 158.647 13.3454 158.555 13.7339H151.014C151.117 14.4994 151.442 15.1107 151.991 15.5677C152.551 16.0248 153.213 16.2533 153.979 16.2533C154.516 16.2533 155.025 16.139 155.504 15.9105C155.984 15.682 156.378 15.3678 156.687 14.9679L158.212 15.3621C157.847 16.0933 157.27 16.6818 156.481 17.1274C155.693 17.573 154.859 17.7958 153.979 17.7958ZM151.014 12.397H156.876C156.761 11.7 156.436 11.1173 155.899 10.6488C155.362 10.1804 154.716 9.94613 153.962 9.94613C153.196 9.94613 152.539 10.1861 151.991 10.666C151.442 11.1344 151.117 11.7114 151.014 12.397ZM163.616 17.7958C162.324 17.7958 161.05 17.3902 159.794 16.5789V14.7451C160.205 15.145 160.759 15.5049 161.456 15.8248C162.153 16.1447 162.867 16.3047 163.598 16.3047C164.193 16.3047 164.661 16.1962 165.004 15.9791C165.347 15.7505 165.512 15.4592 165.501 15.105C165.501 14.7965 165.312 14.5337 164.935 14.3166C164.57 14.0995 163.941 13.8995 163.05 13.7167C161.907 13.4653 161.062 13.1454 160.513 12.7569C159.965 12.357 159.691 11.8086 159.691 11.1116C159.691 10.2775 160.045 9.62049 160.753 9.14059C161.473 8.6607 162.33 8.42075 163.324 8.42075C164.478 8.42075 165.649 8.75782 166.838 9.43196V11.0602C165.604 10.2832 164.433 9.89471 163.324 9.89471C162.799 9.89471 162.347 10.009 161.97 10.2375C161.593 10.4546 161.405 10.7402 161.405 11.0944C161.405 11.4715 161.696 11.7629 162.279 11.9685C162.553 12.0714 163.153 12.2199 164.078 12.4141C165.21 12.6541 166.009 12.9969 166.478 13.4425C166.958 13.8881 167.198 14.4423 167.198 15.105C167.198 15.9848 166.855 16.6532 166.169 17.1102C165.484 17.5673 164.633 17.7958 163.616 17.7958Z" fill="white"/>
<path d="M166.312 2.44072H165.366V2.13754H167.582V2.44072H166.636V4.66406H166.312V2.44072ZM168.25 4.66406H167.925V2.13754H168.25L169.268 3.91332L170.282 2.13754H170.607V4.66406H170.282V2.75473L169.372 4.35005H169.159L168.25 2.75834V4.66406Z" fill="white"/>
<defs>
<filter id="filter0_i_20_21209" x="-0.58467" y="0" width="34.8911" height="19.5847" filterUnits="userSpaceOnUse" color-interpolation-filters="sRGB">
<feFlood flood-opacity="0" result="BackgroundImageFix"/>
<feBlend mode="normal" in="SourceGraphic" in2="BackgroundImageFix" result="shape"/>
<feColorMatrix in="SourceAlpha" type="matrix" values="0 0 0 0 0 0 0 0 0 0 0 0 0 0 0 0 0 0 127 0" result="hardAlpha"/>
<feOffset dx="-0.58467" dy="0.58467"/>
<feGaussianBlur stdDeviation="0.877006"/>
<feComposite in2="hardAlpha" operator="arithmetic" k2="-1" k3="1"/>
<feColorMatrix type="matrix" values="0 0 0 0 1 0 0 0 0 1 0 0 0 0 1 0 0 0 0.23 0"/>
<feBlend mode="normal" in2="shape" result="effect1_innerShadow_20_21209"/>
</filter>
<linearGradient id="paint0_linear_20_21209" x1="-4.6567" y1="3.50433" x2="3.61525" y2="24.7745" gradientUnits="userSpaceOnUse">
<stop stop-color="#E0F4FF"/>
<stop offset="1" stop-color="#207ED5"/>
</linearGradient>
</defs>
</svg>
